<svg xmlns="http://www.w3.org/2000/svg" width="84" height="30" viewBox="0 0 84 30"><g fill="none" fill-rule="evenodd"><g><path d="M0 0H84.079V30H0z"/><g fill-rule="nonzero"><path fill="#475471" d="M15.05 8.948c1.654.0 3.206.67 4.337 1.831.48.494.47 1.284-.025 1.765-.495.48-1.285.469-1.766-.025-.665-.684-1.573-1.076-2.547-1.076-1.96.0-3.55 1.589-3.55 3.548.0.98.396 1.892 1.089 2.557.658.633 1.53.991 2.461.991.931.0 1.802-.358 2.46-.989.497-.477 1.288-.461 1.766.036.478.496.462 1.286-.036 1.764-1.118 1.073-2.607 1.684-4.19 1.684-1.584.0-3.074-.612-4.193-1.688C9.679 18.216 9 16.656 9 14.991c0-3.337 2.708-6.043 6.048-6.043zm21.43 2.84c1.389.0 2.455.331 3.2.993.744.662 1.116 1.66 1.116 2.994v3.904c0 .672-.545 1.217-1.216 1.217h-.1c-.617.0-1.117-.5-1.117-1.118-.489.834-1.4 1.251-2.733 1.251-.689.0-1.286-.117-1.791-.35-.506-.234-.892-.556-1.159-.968-.266-.411-.4-.878-.4-1.4.0-.835.314-1.49.942-1.969.628-.478 1.597-.717 2.908-.717h2.066c0-.567-.172-1.004-.516-1.31-.345-.305-.861-.458-1.55-.458-.478.0-.947.075-1.408.225-.107.035-.223.082-.35.141-.48.224-1.05.03-1.292-.441-.259-.505-.06-1.125.445-1.384l.04-.02c.304-.14.573-.241.807-.306.683-.189 1.386-.284 2.108-.284zm33.432.0c.878.0 1.672.19 2.383.568.711.378 1.27.92 1.675 1.626.162.282.293.773.395 1.473.117.807-.442 1.555-1.25 1.672-.07.01-.14.016-.21.016h-5.16c.123.556.412.995.867 1.317.456.323 1.022.484 1.7.484.467.0.88-.07 1.241-.208.078-.03.164-.073.261-.129.472-.272 1.07-.18 1.44.22.32.347.297.888-.05 1.208-.047.044-.1.082-.155.113-1.027.588-1.961.881-2.804.881-1.01.0-1.905-.197-2.683-.592-.777-.395-1.377-.942-1.8-1.643-.422-.7-.633-1.496-.633-2.385.0-.879.208-1.671.625-2.377.417-.706.989-1.257 1.717-1.651.727-.395 1.541-.593 2.441-.593zM22.71 8.52c.718.0 1.3.582 1.3 1.3v3.037c.344-.345.761-.609 1.25-.792.489-.184 1.022-.276 1.6-.276 1.11.0 2.008.334 2.691 1.001.683.667 1.025 1.657 1.025 2.97v3.837c0 .718-.582 1.3-1.3 1.3-.718.0-1.3-.582-1.3-1.3V16.16c0-.712-.155-1.243-.466-1.593-.312-.35-.761-.526-1.35-.526-.656.0-1.178.203-1.567.609-.389.406-.583 1.01-.583 1.81v3.137c0 .718-.582 1.3-1.3 1.3-.718.0-1.3-.582-1.3-1.3V9.819c0-.718.582-1.3 1.3-1.3zm25.823 3.27c1.111.0 2.008.333 2.692 1 .683.667 1.025 1.657 1.025 2.97v3.837c0 .718-.582 1.3-1.3 1.3-.718.0-1.3-.582-1.3-1.3V16.16c0-.712-.156-1.243-.467-1.593-.31-.35-.76-.526-1.35-.526-.655.0-1.177.203-1.566.609-.389.406-.583 1.01-.583 1.81v3.137c0 .718-.582 1.3-1.3 1.3-.718.0-1.3-.582-1.3-1.3v-6.433c0-.685.556-1.241 1.241-1.241h.191c.58.0 1.05.47 1.05 1.05.345-.377.773-.67 1.284-.875.511-.206 1.072-.309 1.683-.309zm11.159.0c1.11.0 2.008.333 2.691 1 .683.667 1.025 1.657 1.025 2.97v3.837c0 .718-.582 1.3-1.3 1.3-.718.0-1.3-.582-1.3-1.3V16.16c0-.712-.155-1.243-.466-1.593-.311-.35-.761-.526-1.35-.526-.656.0-1.178.203-1.567.609-.389.406-.583 1.01-.583 1.81v3.137c0 .718-.582 1.3-1.3 1.3-.718.0-1.3-.582-1.3-1.3v-6.433c0-.685.556-1.241 1.242-1.241h.19c.58.0 1.051.47 1.051 1.05.345-.377.773-.67 1.284-.875.51-.206 1.072-.309 1.683-.309zm17.454.133c.473.0.917.226 1.195.61L79.8 14.54l1.507-2.025c.279-.374.718-.594 1.184-.594h.642c.379.0.686.307.686.686.0.15-.049.296-.14.415l-2.496 3.286 2.577 3.41c.245.323.18.784-.143 1.028-.127.097-.283.149-.442.149h-.716c-.476.0-.924-.23-1.2-.618l-1.526-2.135-1.59 2.154c-.279.376-.72.599-1.188.599h-.671c-.387.0-.701-.314-.701-.701.0-.154.05-.303.143-.425l2.59-3.395-2.459-3.286c-.241-.322-.175-.78.148-1.022.126-.094.28-.145.437-.145h.705zm-38.95 5.22h-1.783c-1.066.0-1.6.351-1.6 1.052.0.333.131.597.392.792.261.194.62.292 1.075.292.444.0.839-.103 1.183-.309.345-.206.589-.509.733-.909v-.917zm31.733-3.385c-.59.0-1.084.166-1.484.5-.4.334-.644.79-.733 1.368h4.416c-.088-.567-.333-1.02-.733-1.36-.4-.339-.889-.508-1.466-.508z"/><path fill="#2482d1" d="M3.098 13.266c-.126.852-.918 1.44-1.77 1.313-.85-.126-1.437-.919-1.31-1.77C1.103 5.486 7.392.0 14.844.0c2.932.0 5.743.847 8.15 2.415.722.47.926 1.435.457 2.157-.469.721-1.433.926-2.154.456-1.907-1.24-4.128-1.91-6.453-1.91-5.901.0-10.886 4.348-11.747 10.148z"/><path fill="#06bb24" d="M14.007 26.68c.859.055 1.51.795 1.456 1.654-.054.86-.794 1.512-1.652 1.458-6.607-.419-12.143-5.12-13.643-11.486-.198-.838.32-1.677 1.158-1.875.837-.197 1.676.322 1.873 1.16 1.186 5.032 5.574 8.758 10.808 9.09z"/><path fill="#e7a11b" d="M21.295 24.993c.719-.472 1.684-.272 2.156.448.472.72.271 1.686-.448 2.158-1.194.785-2.517 1.355-3.914 1.681-.838.195-1.675-.326-1.87-1.164-.195-.839.326-1.677 1.163-1.872 1.039-.242 2.023-.667 2.913-1.251z"/></g></g></g></svg>