<svg width="1200" height="388" viewBox="0 0 1200 388" fill="none" xmlns="http://www.w3.org/2000/svg">
<path d="M351 143.3C355.44 143.3 359.58 144.14 363.42 145.82C367.38 147.38 370.74 149.72 373.5 152.84C376.26 155.84 378.42 159.5 379.98 163.82C381.66 168.14 382.5 173 382.5 178.4V227H361.8V181.1C361.8 175.7 360.18 171.38 356.94 168.14C353.82 164.78 349.74 163.1 344.7 163.1C339.66 163.1 335.52 164.78 332.28 168.14C329.16 171.38 327.6 175.7 327.6 181.1V227H306.9V113.6H327.6V152.3C329.16 150.62 331.02 149.12 333.18 147.8C335.1 146.72 337.5 145.7 340.38 144.74C343.38 143.78 346.92 143.3 351 143.3Z" fill="#230B41"/>
<path d="M417.67 185.6C417.67 192.44 419.65 197.9 423.61 201.98C427.57 206.06 432.49 208.1 438.37 208.1C444.25 208.1 449.17 206.06 453.13 201.98C457.09 197.9 459.07 192.44 459.07 185.6C459.07 178.76 457.09 173.3 453.13 169.22C449.17 165.14 444.25 163.1 438.37 163.1C432.49 163.1 427.57 165.14 423.61 169.22C419.65 173.3 417.67 178.76 417.67 185.6ZM479.77 185.6C479.77 191.48 478.63 197 476.35 202.16C474.19 207.2 471.19 211.64 467.35 215.48C463.63 219.32 459.25 222.38 454.21 224.66C449.29 226.82 444.01 227.9 438.37 227.9C432.73 227.9 427.39 226.82 422.35 224.66C417.43 222.38 413.05 219.32 409.21 215.48C405.49 211.64 402.49 207.2 400.21 202.16C398.05 197 396.97 191.48 396.97 185.6C396.97 179.72 398.05 174.26 400.21 169.22C402.49 164.06 405.49 159.56 409.21 155.72C413.05 151.88 417.43 148.88 422.35 146.72C427.39 144.44 432.73 143.3 438.37 143.3C444.01 143.3 449.29 144.44 454.21 146.72C459.25 148.88 463.63 151.88 467.35 155.72C471.19 159.56 474.19 164.06 476.35 169.22C478.63 174.26 479.77 179.72 479.77 185.6Z" fill="#230B41"/>
<path d="M510.286 200.9C510.766 203.66 512.086 206 514.246 207.92C516.406 209.84 519.286 210.8 522.886 210.8C526.486 210.8 529.306 209.9 531.346 208.1C533.506 206.18 534.586 204.08 534.586 201.8C534.586 199.88 533.506 198.38 531.346 197.3C529.306 196.22 526.726 195.26 523.606 194.42C520.486 193.46 517.066 192.5 513.346 191.54C509.746 190.58 506.386 189.2 503.266 187.4C500.146 185.48 497.506 183.08 495.346 180.2C493.306 177.2 492.286 173.3 492.286 168.5C492.286 165.14 492.946 161.96 494.266 158.96C495.706 155.84 497.746 153.14 500.386 150.86C503.026 148.58 506.146 146.78 509.746 145.46C513.346 144.02 517.426 143.3 521.986 143.3C531.946 143.3 539.566 145.7 544.846 150.5C550.246 155.3 553.426 161.3 554.386 168.5H534.586C534.106 166.7 532.786 164.9 530.626 163.1C528.586 161.3 526.006 160.4 522.886 160.4C519.766 160.4 517.306 161.18 515.506 162.74C513.826 164.3 512.986 166.22 512.986 168.5C512.986 170.42 514.006 171.92 516.046 173C518.206 174.08 520.846 175.1 523.966 176.06C527.086 176.9 530.446 177.86 534.046 178.94C537.766 179.9 541.186 181.34 544.306 183.26C547.426 185.18 550.006 187.7 552.046 190.82C554.206 193.82 555.286 197.78 555.286 202.7C555.286 206.06 554.566 209.3 553.126 212.42C551.686 215.42 549.646 218.06 547.006 220.34C544.366 222.62 541.126 224.48 537.286 225.92C533.566 227.24 529.366 227.9 524.686 227.9C513.886 227.9 505.666 225.44 500.026 220.52C494.506 215.6 491.326 209.06 490.486 200.9H510.286Z" fill="#230B41"/>
<path d="M612.872 143.3C618.032 143.3 622.952 144.38 627.632 146.54C632.312 148.58 636.392 151.52 639.872 155.36C643.472 159.08 646.292 163.52 648.332 168.68C650.492 173.84 651.572 179.48 651.572 185.6C651.572 191.72 650.492 197.36 648.332 202.52C646.292 207.68 643.472 212.18 639.872 216.02C636.392 219.74 632.312 222.68 627.632 224.84C622.952 226.88 618.032 227.9 612.872 227.9C609.392 227.9 606.332 227.48 603.692 226.64C601.172 225.8 598.952 224.9 597.032 223.94C594.872 222.74 592.952 221.36 591.272 219.8V255.8H570.572V144.2H585.872L589.472 152.3C591.272 150.62 593.372 149.12 595.772 147.8C597.812 146.72 600.272 145.7 603.152 144.74C606.032 143.78 609.272 143.3 612.872 143.3ZM589.472 185.6C589.472 192.44 591.452 197.9 595.412 201.98C599.372 206.06 604.292 208.1 610.172 208.1C616.052 208.1 620.972 206.06 624.932 201.98C628.892 197.9 630.872 192.44 630.872 185.6C630.872 178.76 628.892 173.3 624.932 169.22C620.972 165.14 616.052 163.1 610.172 163.1C604.292 163.1 599.372 165.14 595.412 169.22C591.452 173.3 589.472 178.76 589.472 185.6Z" fill="#230B41"/>
<path d="M687.6 227H666.9V144.2H687.6V227ZM677.7 133.4C674.58 133.4 671.82 132.26 669.42 129.98C667.14 127.58 666 124.82 666 121.7C666 118.58 667.14 115.88 669.42 113.6C671.82 111.2 674.58 110 677.7 110C680.82 110 683.52 111.2 685.8 113.6C688.2 115.88 689.4 118.58 689.4 121.7C689.4 124.82 688.2 127.58 685.8 129.98C683.52 132.26 680.82 133.4 677.7 133.4Z" fill="#230B41"/>
<path d="M716.33 124.4H734.33V144.2H752.33V163.1H734.33V197.3C734.33 200.9 735.35 203.78 737.39 205.94C739.55 207.98 742.43 209 746.03 209C746.99 209 747.77 209 748.37 209C748.97 208.88 749.51 208.76 749.99 208.64C750.47 208.52 750.95 208.34 751.43 208.1V226.1C750.59 226.46 749.63 226.76 748.55 227C746.51 227.6 744.17 227.9 741.53 227.9C737.45 227.9 733.67 227.24 730.19 225.92C726.83 224.48 723.89 222.44 721.37 219.8C718.97 217.16 717.05 214.04 715.61 210.44C714.29 206.84 713.63 202.76 713.63 198.2V163.1H701.03V146H706.43C713.03 146 716.33 142.7 716.33 136.1V124.4Z" fill="#230B41"/>
<path d="M801.823 143.3C806.503 143.3 810.823 144.14 814.783 145.82C818.743 147.38 822.163 149.6 825.043 152.48C827.923 155.36 830.143 158.78 831.703 162.74C833.383 166.7 834.223 171.02 834.223 175.7V227H818.923L815.323 218.9C813.403 220.58 811.303 222.08 809.023 223.4C806.983 224.6 804.523 225.68 801.643 226.64C798.763 227.48 795.523 227.9 791.923 227.9C782.923 227.9 776.023 225.74 771.223 221.42C766.423 216.98 764.023 211.34 764.023 204.5C764.023 200.42 764.803 196.7 766.363 193.34C768.043 189.86 770.803 186.92 774.643 184.52C778.483 182 783.523 180.08 789.763 178.76C796.123 177.32 804.043 176.6 813.523 176.6C813.523 172.04 812.263 168.5 809.743 165.98C807.343 163.46 804.103 162.2 800.023 162.2C797.263 162.2 795.043 162.68 793.363 163.64C791.803 164.6 790.543 165.62 789.583 166.7C788.503 168.02 787.783 169.52 787.423 171.2H766.723C767.203 167.36 768.283 163.76 769.963 160.4C771.763 157.04 774.163 154.1 777.163 151.58C780.163 149.06 783.703 147.08 787.783 145.64C791.983 144.08 796.663 143.3 801.823 143.3ZM795.523 211.7C800.923 211.7 805.243 210.14 808.483 207.02C811.843 203.78 813.523 199.64 813.523 194.6V191C807.403 191 802.483 191.3 798.763 191.9C795.043 192.38 792.103 193.16 789.943 194.24C787.903 195.2 786.523 196.4 785.803 197.84C785.083 199.28 784.723 200.9 784.723 202.7C784.723 204.98 785.743 207.08 787.783 209C789.823 210.8 792.403 211.7 795.523 211.7Z" fill="#230B41"/>
<path d="M895.352 227.9C891.752 227.9 888.512 227.48 885.632 226.64C882.752 225.68 880.292 224.6 878.252 223.4C875.852 222.08 873.752 220.58 871.952 218.9L868.352 227H853.052V113.6H873.752V151.4C875.432 149.96 877.352 148.64 879.512 147.44C881.432 146.48 883.652 145.58 886.172 144.74C888.812 143.78 891.872 143.3 895.352 143.3C900.512 143.3 905.432 144.38 910.112 146.54C914.792 148.58 918.872 151.52 922.352 155.36C925.952 159.08 928.772 163.52 930.812 168.68C932.972 173.84 934.052 179.48 934.052 185.6C934.052 191.72 932.972 197.36 930.812 202.52C928.772 207.68 925.952 212.18 922.352 216.02C918.872 219.74 914.792 222.68 910.112 224.84C905.432 226.88 900.512 227.9 895.352 227.9ZM871.952 185.6C871.952 192.44 873.932 197.9 877.892 201.98C881.852 206.06 886.772 208.1 892.652 208.1C898.532 208.1 903.452 206.06 907.412 201.98C911.372 197.9 913.352 192.44 913.352 185.6C913.352 178.76 911.372 173.3 907.412 169.22C903.452 165.14 898.532 163.1 892.652 163.1C886.772 163.1 881.852 165.14 877.892 169.22C873.932 173.3 871.952 178.76 871.952 185.6Z" fill="#230B41"/>
<path d="M970.08 227H949.38V113.6H970.08V227Z" fill="#230B41"/>
<path d="M1063.61 201.8C1062.53 204.92 1060.85 208.04 1058.57 211.16C1056.41 214.28 1053.71 217.1 1050.47 219.62C1047.35 222.02 1043.75 224 1039.67 225.56C1035.71 227.12 1031.39 227.9 1026.71 227.9C1021.07 227.9 1015.73 226.82 1010.69 224.66C1005.77 222.38 1001.39 219.32 997.55 215.48C993.83 211.64 990.83 207.2 988.55 202.16C986.39 197 985.31 191.48 985.31 185.6C985.31 179.72 986.39 174.26 988.55 169.22C990.83 164.06 993.83 159.56 997.55 155.72C1001.39 151.88 1005.77 148.88 1010.69 146.72C1015.73 144.44 1021.07 143.3 1026.71 143.3C1032.11 143.3 1037.21 144.32 1042.01 146.36C1046.81 148.4 1051.01 151.28 1054.61 155C1058.21 158.72 1061.03 163.22 1063.07 168.5C1065.23 173.66 1066.31 179.36 1066.31 185.6C1066.31 186.56 1066.25 187.52 1066.13 188.48C1066.01 189.32 1065.89 190.16 1065.77 191C1065.65 191.96 1065.53 192.86 1065.41 193.7H1007.81C1008.77 197.78 1010.81 201.2 1013.93 203.96C1017.05 206.72 1021.31 208.1 1026.71 208.1C1029.47 208.1 1031.75 207.8 1033.55 207.2C1035.47 206.6 1037.09 205.88 1038.41 205.04C1039.85 204.08 1041.05 203 1042.01 201.8H1063.61ZM1026.71 163.1C1021.31 163.1 1016.87 164.66 1013.39 167.78C1010.03 170.9 1007.87 174.74 1006.91 179.3H1046.51C1045.55 174.74 1043.33 170.9 1039.85 167.78C1036.49 164.66 1032.11 163.1 1026.71 163.1Z" fill="#230B41"/>
<path fill-rule="evenodd" clip-rule="evenodd" d="M193.129 236C229.098 236 258.257 206.899 258.257 171C258.257 135.101 229.098 106 193.129 106C157.159 106 128 135.101 128 171C128 206.899 157.159 236 193.129 236ZM193.129 210C214.71 210 232.206 192.539 232.206 171C232.206 149.461 214.71 132 193.129 132C171.547 132 154.051 149.461 154.051 171C154.051 192.539 171.547 210 193.129 210ZM232.206 262C232.206 254.82 226.374 249 219.18 249H167.077C159.883 249 154.051 254.82 154.051 262C154.051 269.18 159.883 275 167.077 275H219.18C226.374 275 232.206 269.18 232.206 262Z" fill="#ED3C6A"/>
</svg>
