<svg width="1226" height="284" viewBox="0 0 1226 284" fill="none" xmlns="http://www.w3.org/2000/svg">
<path d="M911.668 0.0739626C918.051 0.79215 922.644 6.54952 921.926 12.9334L921.926 12.9378L921.925 12.9457L921.922 12.9722L921.911 13.0672L921.87 13.4224C921.834 13.7318 921.781 14.1847 921.71 14.773C921.568 15.9494 921.357 17.6674 921.074 19.8605C920.509 24.246 919.657 30.5357 918.508 38.1976C916.212 53.5068 912.717 74.3642 907.923 96.4892C903.14 118.566 897.009 142.168 889.387 162.869C881.916 183.163 872.45 202.286 860.233 213.922C850.183 223.495 839.003 227.911 827.365 226.844C816.271 225.827 806.708 219.988 799.013 213.199C789.552 204.851 781.307 193.614 774.669 182.984C768.032 193.614 759.787 204.851 750.326 213.199C742.63 219.988 733.068 225.827 721.973 226.844C710.335 227.911 699.156 223.495 689.106 213.922C677.232 202.614 667.979 184.26 660.633 164.704C653.145 144.769 647.072 121.99 642.28 100.427C640.886 94.1561 644.839 87.9424 651.11 86.5486C657.381 85.1547 663.594 89.1085 664.988 95.3797C669.659 116.398 675.456 138.01 682.41 156.523C689.507 175.417 697.269 189.571 705.149 197.076C711.354 202.986 716.175 204.014 719.849 203.677C724.067 203.291 729.129 200.877 734.936 195.753C745.044 186.835 752.209 174.909 761.048 160.196L761.512 159.424L784.52 116.23C786.496 112.551 788.252 109.268 789.514 106.905L790.178 105.66V71.9016L774.669 60.8235L759.161 71.9016V105.66L759.825 106.905C761.087 109.268 762.843 112.551 764.818 116.23L768.006 123.105L755.249 147.338C752.636 142.555 747.253 132.69 744.325 127.238C742.338 123.539 740.573 120.238 739.304 117.862C738.67 116.674 738.159 115.716 737.807 115.056L735.898 111.467V59.9295L774.669 32.2344L813.44 59.9295V111.467L811.531 115.056C811.179 115.716 810.669 116.674 810.034 117.862C808.766 120.238 807.001 123.539 805.014 127.238C801.049 134.619 796.167 143.652 792.588 150.086C791.923 151.281 791.139 152.845 790.092 154.935L790.091 154.938C789.447 156.222 787.827 159.424 787.827 159.424C787.827 159.424 804.118 186.68 814.403 195.753C820.21 200.877 825.271 203.291 829.489 203.677C833.164 204.014 837.985 202.986 844.19 197.076C852.327 189.325 860.308 174.522 867.557 154.831C874.657 135.547 880.521 113.106 885.188 91.563C889.845 70.0682 893.256 49.729 895.503 34.7466C896.625 27.2627 897.455 21.1329 898.003 16.8853C898.276 14.7619 898.48 13.1099 898.614 11.9955C898.681 11.4384 898.73 11.0157 898.763 10.7358L898.799 10.424L898.809 10.3345L898.809 10.3318C899.528 3.94833 905.285 -0.644193 911.668 0.0739626Z" fill="#061135"/>
<path d="M16.6353 227V108.35H40.1393V145.64L37.8793 136.6C39.5366 130.875 42.3239 125.677 46.2413 121.006C50.3093 116.335 54.9046 112.644 60.0273 109.932C65.3006 107.22 70.7246 105.864 76.2993 105.864C78.8606 105.864 81.2713 106.09 83.5313 106.542C85.942 106.994 87.8253 107.521 89.1813 108.124L83.0793 133.436C81.2713 132.683 79.2373 132.08 76.9773 131.628C74.868 131.025 72.7586 130.724 70.6493 130.724C66.5813 130.724 62.6639 131.553 58.8973 133.21C55.2813 134.717 52.042 136.901 49.1793 139.764C46.4673 142.476 44.2826 145.715 42.6253 149.482C40.968 153.098 40.1393 157.091 40.1393 161.46V227H16.6353ZM158.08 229.26C145.876 229.26 135.028 226.699 125.536 221.576C116.194 216.303 108.812 209.146 103.388 200.106C98.1142 191.066 95.4775 180.67 95.4775 168.918C95.4775 159.577 96.9842 151.064 99.9975 143.38C103.011 135.696 107.154 129.067 112.428 123.492C117.852 117.767 124.255 113.397 131.638 110.384C139.171 107.22 147.307 105.638 156.046 105.638C163.73 105.638 170.886 107.145 177.516 110.158C184.145 113.021 189.87 117.013 194.692 122.136C199.664 127.259 203.43 133.361 205.992 140.442C208.704 147.373 209.984 154.981 209.834 163.268L209.608 173.212H112.654L107.456 154.68H189.494L186.104 158.522V153.098C185.652 148.126 183.994 143.681 181.132 139.764C178.269 135.847 174.653 132.758 170.284 130.498C165.914 128.238 161.168 127.108 156.046 127.108C147.91 127.108 141.054 128.69 135.48 131.854C129.905 134.867 125.686 139.387 122.824 145.414C119.961 151.29 118.53 158.597 118.53 167.336C118.53 175.623 120.262 182.855 123.728 189.032C127.193 195.059 132.09 199.729 138.418 203.044C144.746 206.359 152.053 208.016 160.34 208.016C166.216 208.016 171.64 207.037 176.612 205.078C181.734 203.119 187.234 199.579 193.11 194.456L204.862 210.954C201.246 214.57 196.801 217.734 191.528 220.446C186.405 223.158 180.906 225.343 175.03 227C169.304 228.507 163.654 229.26 158.08 229.26ZM235.131 227V108.35H258.409V132.758L254.341 135.47C255.848 130.197 258.786 125.375 263.155 121.006C267.525 116.486 272.723 112.87 278.749 110.158C284.776 107.295 290.953 105.864 297.281 105.864C306.321 105.864 313.855 107.672 319.881 111.288C325.908 114.753 330.428 120.102 333.441 127.334C336.455 134.566 337.961 143.681 337.961 154.68V227H314.683V156.262C314.683 149.482 313.779 143.907 311.971 139.538C310.163 135.018 307.376 131.779 303.609 129.82C299.843 127.711 295.172 126.807 289.597 127.108C285.077 127.108 280.934 127.861 277.167 129.368C273.401 130.724 270.086 132.683 267.223 135.244C264.511 137.805 262.327 140.819 260.669 144.284C259.163 147.599 258.409 151.215 258.409 155.132V227H246.883C244.925 227 242.966 227 241.007 227C239.049 227 237.09 227 235.131 227ZM384.23 227V78.066H407.508V227H384.23ZM359.596 130.95V108.35H435.08V130.95H359.596ZM500.824 229.26C491.031 229.26 482.066 226.548 473.93 221.124C465.945 215.7 459.542 208.317 454.72 198.976C449.899 189.635 447.488 179.088 447.488 167.336C447.488 155.433 449.899 144.887 454.72 135.696C459.692 126.355 466.322 119.047 474.608 113.774C483.046 108.501 492.462 105.864 502.858 105.864C509.036 105.864 514.686 106.768 519.808 108.576C524.931 110.384 529.376 112.945 533.142 116.26C537.06 119.424 540.224 123.115 542.634 127.334C545.196 131.553 546.778 136.073 547.38 140.894L542.182 139.086V108.35H565.686V227H542.182V198.75L547.606 197.168C546.702 201.236 544.819 205.229 541.956 209.146C539.244 212.913 535.704 216.303 531.334 219.316C527.116 222.329 522.37 224.74 517.096 226.548C511.974 228.356 506.55 229.26 500.824 229.26ZM506.926 207.79C514.008 207.79 520.26 206.057 525.684 202.592C531.108 199.127 535.327 194.381 538.34 188.354C541.504 182.177 543.086 175.171 543.086 167.336C543.086 159.652 541.504 152.797 538.34 146.77C535.327 140.743 531.108 135.997 525.684 132.532C520.26 129.067 514.008 127.334 506.926 127.334C499.996 127.334 493.818 129.067 488.394 132.532C483.121 135.997 478.902 140.743 475.738 146.77C472.725 152.797 471.218 159.652 471.218 167.336C471.218 175.171 472.725 182.177 475.738 188.354C478.902 194.381 483.121 199.127 488.394 202.592C493.818 206.057 499.996 207.79 506.926 207.79ZM598.64 227V59.76H621.918V227H598.64Z" fill="#061135"/>
<path d="M942.381 227V108.35H965.659V227H942.381ZM953.681 82.134C948.709 82.134 944.867 80.8533 942.155 78.292C939.443 75.7307 938.087 72.1147 938.087 67.444C938.087 63.0747 939.443 59.534 942.155 56.822C945.017 54.11 948.859 52.754 953.681 52.754C958.653 52.754 962.495 54.0347 965.207 56.596C967.919 59.1573 969.275 62.7733 969.275 67.444C969.275 71.8133 967.843 75.354 964.981 78.066C962.269 80.778 958.502 82.134 953.681 82.134ZM1040.99 229.26C1031.04 229.26 1022.08 227.527 1014.09 224.062C1006.11 220.597 999.48 215.474 994.207 208.694L1010.03 195.134C1014.55 200.407 1019.44 204.249 1024.72 206.66C1030.14 208.92 1036.24 210.05 1043.02 210.05C1045.73 210.05 1048.22 209.749 1050.48 209.146C1052.89 208.393 1054.93 207.338 1056.58 205.982C1058.39 204.626 1059.75 203.044 1060.65 201.236C1061.55 199.277 1062.01 197.168 1062.01 194.908C1062.01 190.991 1060.58 187.827 1057.71 185.416C1056.21 184.361 1053.8 183.231 1050.48 182.026C1047.32 180.67 1043.17 179.314 1038.05 177.958C1029.31 175.698 1022.16 173.137 1016.58 170.274C1011.01 167.411 1006.71 164.172 1003.7 160.556C1001.44 157.693 999.782 154.605 998.727 151.29C997.672 147.825 997.145 144.058 997.145 139.99C997.145 135.018 998.2 130.498 1000.31 126.43C1002.57 122.211 1005.58 118.595 1009.35 115.582C1013.27 112.418 1017.79 110.007 1022.91 108.35C1028.18 106.693 1033.76 105.864 1039.63 105.864C1045.21 105.864 1050.71 106.617 1056.13 108.124C1061.71 109.631 1066.83 111.815 1071.5 114.678C1076.17 117.541 1080.09 120.931 1083.25 124.848L1069.92 139.538C1067.05 136.675 1063.89 134.189 1060.42 132.08C1057.11 129.82 1053.72 128.087 1050.25 126.882C1046.79 125.677 1043.63 125.074 1040.76 125.074C1037.6 125.074 1034.74 125.375 1032.17 125.978C1029.61 126.581 1027.43 127.485 1025.62 128.69C1023.96 129.895 1022.68 131.402 1021.78 133.21C1020.87 135.018 1020.42 137.052 1020.42 139.312C1020.57 141.271 1021.03 143.154 1021.78 144.962C1022.68 146.619 1023.89 148.051 1025.39 149.256C1027.05 150.461 1029.54 151.742 1032.85 153.098C1036.17 154.454 1040.39 155.735 1045.51 156.94C1053.04 158.899 1059.22 161.083 1064.04 163.494C1069.01 165.754 1072.93 168.391 1075.79 171.404C1078.81 174.267 1080.92 177.581 1082.12 181.348C1083.33 185.115 1083.93 189.333 1083.93 194.004C1083.93 200.784 1081.97 206.886 1078.05 212.31C1074.29 217.583 1069.16 221.727 1062.68 224.74C1056.21 227.753 1048.97 229.26 1040.99 229.26ZM1164.95 229.26C1152.75 229.26 1141.9 226.699 1132.41 221.576C1123.07 216.303 1115.69 209.146 1110.26 200.106C1104.99 191.066 1102.35 180.67 1102.35 168.918C1102.35 159.577 1103.86 151.064 1106.87 143.38C1109.88 135.696 1114.03 129.067 1119.3 123.492C1124.73 117.767 1131.13 113.397 1138.51 110.384C1146.04 107.22 1154.18 105.638 1162.92 105.638C1170.6 105.638 1177.76 107.145 1184.39 110.158C1191.02 113.021 1196.74 117.013 1201.57 122.136C1206.54 127.259 1210.3 133.361 1212.87 140.442C1215.58 147.373 1216.86 154.981 1216.71 163.268L1216.48 173.212H1119.53L1114.33 154.68H1196.37L1192.98 158.522V153.098C1192.53 148.126 1190.87 143.681 1188.01 139.764C1185.14 135.847 1181.53 132.758 1177.16 130.498C1172.79 128.238 1168.04 127.108 1162.92 127.108C1154.78 127.108 1147.93 128.69 1142.35 131.854C1136.78 134.867 1132.56 139.387 1129.7 145.414C1126.83 151.29 1125.4 158.597 1125.4 167.336C1125.4 175.623 1127.14 182.855 1130.6 189.032C1134.07 195.059 1138.96 199.729 1145.29 203.044C1151.62 206.359 1158.93 208.016 1167.21 208.016C1173.09 208.016 1178.51 207.037 1183.49 205.078C1188.61 203.119 1194.11 199.579 1199.98 194.456L1211.74 210.954C1208.12 214.57 1203.67 217.734 1198.4 220.446C1193.28 223.158 1187.78 225.343 1181.9 227C1176.18 228.507 1170.53 229.26 1164.95 229.26Z" fill="#061135"/>
</svg>
